<?xml version="1.0" encoding="UTF-8"?>
<!-- Generator: Adobe Illustrator 28.3.0, SVG Export Plug-In . SVG Version: 6.00 Build 0)  -->
<svg xmlns="http://www.w3.org/2000/svg" xmlns:xlink="http://www.w3.org/1999/xlink" version="1.1" id="Livello_1" x="0px" y="0px" viewBox="0 0 1151.9 153.8" style="enable-background:new 0 0 1151.9 153.8;" xml:space="preserve">
<style type="text/css">
	.st0{fill:#311b92;}
</style>
<g>
	<path class="st0" d="M272.6,84.6h-35C236,70.6,229,65.3,220,65.3c-12.1,0-18.7,10.3-18.7,31c0,22.9,6.8,33,19.1,33   c8.2,0,15.1-6,17.1-17.7H273c-4,27.7-25.5,42.2-54.7,42.2c-30.8,0-54.1-19.9-54.1-55.3c0-37,24.9-57.7,56.5-57.7   S271.6,60.5,272.6,84.6z"></path>
	<path class="st0" d="M385.6,97.3c0,34.4-22.5,56.5-57.7,56.5c-35.2,0-57.7-22.1-57.7-56.5c0-34.6,22.5-56.5,57.7-56.5   C363.1,40.8,385.6,62.7,385.6,97.3z M348.6,97.3c0-21.5-7.8-32-20.7-32s-20.7,10.5-20.7,32c0,21.3,7.8,32,20.7,32   S348.6,118.6,348.6,97.3z"></path>
	<path class="st0" d="M550,106.5c0,3.6,0,7.6,0.2,10.5c0.8,10.9,4.2,13.3,21.3,12.5V152c-7,1.2-13.7,1.8-21.3,1.8   c-26.7,0-34.8-8.2-36-24.7c-0.4-6.2-0.4-11.3-0.4-17.3V66.9h-17.1V44.4h17.1V16.7H550v27.7h23.7v22.5H550V106.5z"></path>
	<path class="st0" d="M678.2,106.3h-74.8c1.8,17.9,9.6,22.9,19.9,22.9s16.5-5.2,17.9-13.5h35.6c-6.2,24.3-26.3,38-53.9,38   c-30.8,0-55.3-18.3-55.3-56.1c0-31.4,21.5-56.9,57.3-56.9c35.8,0,53.9,27.3,53.9,55.1C678.8,99.1,678.6,102.7,678.2,106.3z    M604.7,84.2h36.4c-2-12.7-8.2-18.9-17.9-18.9C613.7,65.3,607.1,71,604.7,84.2z"></path>
	<path class="st0" d="M843.3,106.5c0,3.6,0,7.6,0.2,10.5c0.8,10.9,4.2,13.3,21.3,12.5V152c-7,1.2-13.7,1.8-21.3,1.8   c-26.7,0-34.8-8.2-36-24.7c-0.4-6.2-0.4-11.3-0.4-17.3V66.9H790V44.4h17.1V16.7h36.2v27.7H867v22.5h-23.7V106.5z"></path>
	<path class="st0" d="M957.4,75h-35.6c-1.6-7.4-5.2-11.7-11.7-11.7c-5,0-8.6,3.2-8.6,7.8c0,6,4.8,10.1,25.3,15.1   c19.5,4.8,33.4,13.3,33.4,34c0,22.9-21.5,33.6-47.4,33.6c-29.1,0-49-12.1-51.9-36.2h35.6c2,8.2,8.4,13.7,16.1,13.7   c6.4,0,11.5-2.6,11.5-8.2c0-6.8-6.8-10.7-25.9-15.1c-20.5-4.8-32.8-14.3-32.8-32.6c0-21.3,18.5-34.6,47-34.6   C939.1,40.8,954.6,55.5,957.4,75z"></path>
	<path class="st0" d="M497.1,69.9c-2.8-18.7-15.9-29.1-38-29.1c-9.8,0-17.5,2.2-24.1,6.2c-5.9,3.7-8.5,8.2-9.6,11.2V43.6h-36.2V151   h36.2v-50.7c0-24.3,7.8-35,18.9-35c10.9,0,16.5,6,17.3,16.3C462,87,462,92.9,462,96.3V151h36.2V90.3   C498.1,81.6,497.9,75.4,497.1,69.9z"></path>
	<path class="st0" d="M790.4,69.9c-2.8-18.7-15.9-29.1-38-29.1c-9.8,0-17.5,2.2-24.1,6.2c-5.9,3.7-8.5,8.2-9.6,11.2V43.6h-36.2V151   h36.2v-50.7c0-24.3,7.8-35,18.9-35c10.9,0,16.5,6,17.3,16.3c0.4,5.4,0.4,11.3,0.4,14.7V151h36.2V90.3   C791.4,81.6,791.2,75.4,790.4,69.9z"></path>
	<g>

			<ellipse transform="matrix(0.7071 -0.7071 0.7071 0.7071 -36.3685 29.2864)" class="st0" cx="17.2" cy="58.5" rx="17.2" ry="17.2"></ellipse>
		<path class="st0" d="M117,46H53.8c-7,0-12.6,5.6-12.6,12.6v0c0,7,5.6,12.6,12.6,12.6H117c7,0,12.6-5.6,12.6-12.6v0    C129.6,51.6,124,46,117,46z"></path>

			<ellipse transform="matrix(9.853837e-02 -0.9951 0.9951 9.853837e-02 -120.5 140.2605)" class="st0" cx="17.2" cy="136.6" rx="17.2" ry="17.2"></ellipse>
		<path class="st0" d="M117,124.1H53.8c-7,0-12.6,5.6-12.6,12.6v0c0,7,5.6,12.6,12.6,12.6H117c7,0,12.6-5.6,12.6-12.6v0    C129.6,129.7,124,124.1,117,124.1z"></path>
		<ellipse transform="matrix(0.7071 -0.7071 0.7071 0.7071 -63.98 40.7235)" class="st0" cx="17.2" cy="97.6" rx="17.2" ry="17.2"></ellipse>
		<path class="st0" d="M117,85H53.8c-7,0-12.6,5.6-12.6,12.6v0c0,7,5.6,12.6,12.6,12.6H117c7,0,12.6-5.6,12.6-12.6v0    C129.6,90.6,124,85,117,85z"></path>
	</g>
</g>
<path class="st0" d="M999.5,136.2c0,10.1-7.1,17.2-17.2,17.2c-10.1,0-17.2-7.1-17.2-17.2c0-10.1,7.1-17.2,17.2-17.2  C992.5,119,999.5,126,999.5,136.2z"></path>
<g>
	<path class="st0" d="M1105.5,93.7c0-6.6-0.2-12.9-0.6-18.3c-1.6-19.5-13.3-34.6-47.2-34.6c-27.1,0-49.4,14.3-49.6,39.4l34.2-0.2   c0.6-9.2,5.4-14.7,13.9-14.7c7.8,0,12.3,4.8,12.9,10.3c0.4,3.4,0.4,5.6,0.4,7.8V85h-6.8c-36.4,0-58.1,14.1-58.1,37   c0,20.7,16.7,31.8,34.4,31.8c8.1,0,15.7-1.7,22.4-4.9c0.2-0.1,1.3-0.7,1.6-0.8c3-1.6,5.7-3.4,8.1-5.5l1.3,8.5h35.4   c-1.6-11.9-2-19.1-2-27.1V93.7z M1041.4,119.2c0-10.7,11.7-14.9,27.9-13.7v7c0,11.3-8.4,16.7-15.7,16.7S1041.4,125.6,1041.4,119.2z   "></path>
	<path class="st0" d="M1133.2,35.4c11.3,0,18.7-6.8,18.7-17.7c0-10.9-7.4-17.7-18.7-17.7c-11.3,0-18.7,6.8-18.7,17.7   C1114.5,28.5,1122,35.4,1133.2,35.4z"></path>
	<rect x="1115.1" y="43.6" class="st0" width="36.2" height="107.3"></rect>
</g>
</svg>
